Coordinates
version=1
nRows=10
nColumns=46
inDegrees=yes

Units are S.I. units (second, meters, Newtons, ...)
Angles are in degrees.

endheader
time	pelvis_tilt	pelvis_list	pelvis_rotation	pelvis_tx	pelvis_ty	pelvis_tz	bb_angle	bb_tx	bb_ty	bb_tz	hip_flexion_r	hip_adduction_r	hip_rotation_r	knee_angle_r	knee_angle_r_beta	ankle_angle_r	subtalar_angle_r	mtp_angle_r	crank_angle_r	hip_flexion_l	hip_adduction_l	hip_rotation_l	knee_angle_l	knee_angle_l_beta	ankle_angle_l	subtalar_angle_l	mtp_angle_l	crank_angle_l	lumbar_extension	lumbar_bending	lumbar_rotation	arm_flex_r	arm_add_r	arm_rot_r	elbow_flex_r	pro_sup_r	wrist_flex_r	wrist_dev_r	arm_flex_l	arm_add_l	arm_rot_l	elbow_flex_l	pro_sup_l	wrist_flex_l	wrist_dev_l
      2.50000000	    -24.53117732	     -8.92956949	    -17.96371379	      0.31711352	      1.11817710	     -0.33639023	      0.00000000	      0.50000000	      0.00000000	      0.25000000	     75.63072622	     10.51365114	     -1.76430130	     82.56397699	      1.44101324	     23.60497422	     -1.00061417	      0.00000000	      0.00000000	     39.72040321	    -21.56434987	     -5.91196561	     48.08838889	      0.83930072	    -31.04912499	     -8.48852909	      0.00000000	      0.00000000	    -65.55524788	      3.87394247	     10.31477736	     86.24208933	      6.27692094	     29.01420880	     43.27404662	     40.45961895	      0.00000000	      0.00000000	     59.77219407	    -24.95842273	     11.92464366	     67.76157272	     44.97183521	      0.00000000	      0.00000000
      2.50500000	    -24.41640728	     -8.54464553	    -17.72198595	      0.31818681	      1.11783656	     -0.33760291	      0.00000000	      0.50000000	      0.00000000	      0.25000000	     75.03458280	     10.09960962	     -1.46837441	     81.29923751	      1.41893937	     23.29334223	     -0.88663654	      0.00000000	      0.00000000	     40.36545548	    -20.77656746	     -5.19493031	     49.85093504	      0.87006295	    -30.81520349	     -9.22191203	      0.00000000	      0.00000000	    -65.72916876	      4.10810527	     10.01392233	     86.17935610	      6.33072668	     28.82463448	     43.71157052	     40.52040461	      0.00000000	      0.00000000	     59.56368158	    -24.95293737	     12.05890666	     67.99239564	     45.02422362	      0.00000000	      0.00000000
      2.51000000	    -24.31446678	     -8.12251147	    -17.55352098	      0.31973621	      1.11742549	     -0.33821388	      0.00000000	      0.50000000	      0.00000000	      0.25000000	     74.34370029	      9.82076559	     -1.09208779	     79.94244878	      1.39525894	     23.08262859	     -1.13741303	      0.00000000	      0.00000000	     40.89496707	    -20.09381061	     -4.78905161	     51.50019291	      0.89884793	    -30.48280998	     -9.84535574	      0.00000000	      0.00000000	    -65.80554278	      4.22937117	      9.72833356	     85.98493641	      6.39714234	     28.72117723	     44.03766943	     40.57304000	      0.00000000	      0.00000000	     59.29935626	    -24.94398952	     12.16730294	     68.09134639	     45.05352456	      0.00000000	      0.00000000
      2.51500000	    -24.37484807	     -7.89125730	    -17.20420465	      0.32098917	      1.11667859	     -0.33897278	      0.00000000	      0.50000000	      0.00000000	      0.25000000	     73.78061362	      9.47503101	     -0.95925501	     78.56414094	      1.37120293	     22.74009743	     -1.75175203	      0.00000000	      0.00000000	     41.75462046	    -19.48189785	     -4.00203663	     53.22545274	      0.92895940	    -30.39003258	    -10.40124947	      0.00000000	      0.00000000	    -65.79871655	      4.67476043	      9.49362889	     85.62191649	      6.50745890	     28.33731820	     44.97258098	     40.71384189	      0.00000000	      0.00000000	     58.87292515	    -25.18667727	     12.30545327	     68.42908621	     45.12547942	      0.00000000	      0.00000000
      2.52000000	    -24.18337864	     -7.43818382	    -17.02964773	      0.32254899	      1.11627683	     -0.33941540	      0.00000000	      0.50000000	      0.00000000	      0.25000000	     72.99386211	      9.21058896	     -0.46529737	     77.22767021	      1.34787712	     22.46015475	     -1.85978550	      0.00000000	      0.00000000	     42.11935712	    -18.79082603	     -3.73141425	     54.74048060	      0.95540162	    -30.10200630	    -10.78927854	      0.00000000	      0.00000000	    -65.88626955	      4.73172299	      9.20011119	     85.40253608	      6.46793096	     28.22896717	     45.19008939	     40.74737644	      0.00000000	      0.00000000	     58.72668610	    -25.17623897	     12.32641443	     68.47145582	     45.13523957	      0.00000000	      0.00000000
      2.52500000	    -24.16545709	     -7.17268498	    -16.65149714	      0.32404950	      1.11523014	     -0.34012740	      0.00000000	      0.50000000	      0.00000000	      0.25000000	     72.36012472	      8.79437895	     -0.29862904	     75.94505083	      1.32549119	     22.12144452	     -2.04818788	      0.00000000	      0.00000000	     42.85014397	    -18.17661696	     -3.13920011	     56.44416299	      0.98513649	    -29.82825300	    -11.12598604	      0.00000000	      0.00000000	    -65.93139627	      5.09281678	      9.00898541	     84.62115717	      6.39748693	     27.15564751	     47.29452831	     41.07452041	      0.00000000	      0.00000000	     58.26708359	    -25.32821546	     12.28182027	     69.16730080	     45.23655961	      0.00000000	      0.00000000
      2.53000000	    -24.07003757	     -6.85930287	    -16.33649935	      0.32571539	      1.11415594	     -0.34088297	      0.00000000	      0.50000000	      0.00000000	      0.25000000	     71.66041354	      8.39941648	     -0.02487944	     74.69036253	      1.30359275	     21.80354170	     -2.14038066	      0.00000000	      0.00000000	     43.41309630	    -17.54270044	     -2.68527334	     58.11032258	      1.01421646	    -29.38363431	    -11.43645849	      0.00000000	      0.00000000	    -65.90942159	      5.42018720	      8.75610002	     84.27203368	      6.41834688	     27.02146559	     47.63488840	     41.14630110	      0.00000000	      0.00000000	     57.97532976	    -25.32995803	     12.30088310	     69.04056648	     45.21726834	      0.00000000	      0.00000000
      2.53500000	    -23.85347823	     -6.54284146	    -15.92069273	      0.32725377	      1.11313074	     -0.34148757	      0.00000000	      0.50000000	      0.00000000	      0.25000000	     70.90001175	      7.92001218	      0.21049839	     73.53999223	      1.28351500	     21.35686277	     -2.27474831	      0.00000000	      0.00000000	     43.89120248	    -16.87610591	     -2.23741058	     59.79686807	      1.04365223	    -28.87981552	    -11.54374933	      0.00000000	      0.00000000	    -65.98800921	      5.74861711	      8.46756293	     83.91012007	      6.41132093	     26.86366312	     48.11029143	     41.23992055	      0.00000000	      0.00000000	     57.77176191	    -25.33763160	     12.36500710	     68.98802719	     45.21424811	      0.00000000	      0.00000000
      2.54000000	    -23.69271816	     -6.22984170	    -15.55151905	      0.32869895	      1.11190459	     -0.34196104	      0.00000000	      0.50000000	      0.00000000	      0.25000000	     70.17096601	      7.54140410	      0.51974958	     72.35118098	      1.26276633	     20.86241193	     -2.49326460	      0.00000000	      0.00000000	     44.42744314	    -16.27185546	     -1.82255821	     61.52458302	      1.07380654	    -28.23641284	    -11.56575180	      0.00000000	      0.00000000	    -66.00156517	      5.99407159	      8.24962805	     83.28425341	      6.25845655	     26.33810251	     49.32699734	     41.47281576	      0.00000000	      0.00000000	     57.58824483	    -25.32887280	     12.74733264	     69.08134527	     45.26023918	      0.00000000	      0.00000000
      2.54500000	    -23.41900176	     -5.92041735	    -15.09450994	      0.33028474	      1.11079345	     -0.34244783	      0.00000000	      0.50000000	      0.00000000	      0.25000000	     69.33581261	      7.05790643	      0.78394262	     71.23513652	      1.24328768	     20.35737680	     -2.63669143	      0.00000000	      0.00000000	     44.83461802	    -15.63218070	     -1.43277473	     63.20363132	      1.10311147	    -27.54293493	    -11.48550721	      0.00000000	      0.00000000	    -66.09107714	      6.29509690	      7.89394629	     82.93952194	      6.25578947	     26.23945307	     49.60498374	     41.53120986	      0.00000000	      0.00000000	     57.42404023	    -25.28862789	     12.90980653	     69.00948727	     45.26458039	      0.00000000	      0.00000000
